<?xml version="1.0" encoding="UTF-8"?>
<svg viewBox="0 0 1154 866" xmlns="http://www.w3.org/2000/svg">
 <g fill-rule="evenodd">
  <path d="m755 528l-2 12q-3 13-6 21-3 7-8 12t-6 5h-1v-1q1-1 2-2l1-1q1 0 2-2 2-2-2-1t-4 0 1-1 1-2q1-2 1-5 2-3 4-5 3-2 4-4 0-3-2-5-3-3-8-3-4 0-8 2-5 3-5 6-1 3-2 4-2 0-3 2 0 2-2 2t-1 2 1 2q0-1 0 1-1 3-3 2t-2 1q1 3-1 4h-2v2h2l1 1h1v2q1 2 2 1 2 0 6 0t3 1 2 1h3l1-1h1v2h-2l-1 1h-2l-1 1q-2 1-7 1-5 2-8 4t-8 8q-5 5-9 12t-7 9l-2 3h-2l-1 1-1 1h-2v1h-1v1h-2v-2h1l1-1 1-1h1v-2q0-2 1-3t2-5q1-3 3-3 1-1 3-3l2-2 1-1h1v-2l1-2v-3h-3l-1 1-1 1h-1q-2 0-4 2-3 0-9 1l-6 1v-3l1-3v-1h1v1h1v3h1v1l2-1q1 0 3-1 1-2 7-4t8-2q3-1 5-4 2-2 3-2t3-1l2-1 1-1v-1h2v-1l-1-1v-1l1-1v-1h-2l-2 1h-3q-2 0-8 0-5 0-6 0t-12-1-11 0-9 2q-8 1-15 3t-11 1q-3-1-5-2-1-2-4-7-3-6-4-6t-2-2l-1-1v-1q0-1-2-4 0-2-1-8t1-10l2-4 1-1v-1q1 0 1 0v-1t1-1q1 0 1 0v-1h1l1-1t1 0v-1q1 0 1-1l4-2q3-2 4-2h1v-1h1v-1h3v-1h1v-1h2v2h-2v2h-1v1h-1v1h-1l-4 4q-3 4-5 6t-4 2q-2 1-2 7t2 9q2 2 3 3 1 0 2 2 1 1 2 2 1 0 1-2 1-3 3 1 2 2 9 2 8 0 17-2t10-4 6-2q5-1 6-3 1-1 6-3 5-1 5-2 1-2 6-4 4-2 5-4t3-2q2-1 4-4 1-4 6-5 6-2 6-3t-1-2q-1 0 2 0 3 1 5-1 1-1 3-2 2 0 2 1t4 1q3 0 4 2 0 2 1 2 2 0 2 2t4 2 5-1q0-1 3-2 4 0 5-2 1-3 1-1t1 3z" fill="#77574c" stroke="#77574c"/>
  <path d="m658 630h2t-4 2q-3 2-27 18t-25 17q-2 2-22 15l-20 13h-1v1h-3l-1 1-1 1h-3v-1h1v-2h1v-1h1v-1h1v-1h1v-1l4-3q4-2 5-3 0-1 2-1t2-2q0-1 2-2 3 0 3-2 0-1 1 0 2 0 3-1 1-2 3-3 3 0 5-4 3-4 5-3 2 0 2-2t4-4q5-2 5-4 1-1 4-2 4-1 4-2t6-3q7-2 10-5t5-4q2 0 3-1 0-2 5-4t10-4 7-2z" fill="#635f5a" stroke="#635f5a"/>
  <path d="m735 574v1h-1v1h-1v1h-1v1q-1 0-4 2l-2 1q-1 1-1 1h-3q-4 0-3-1t-3-1-6 0q-1 1-2-1v-2h-1l-1-1h-2v-2h2q2-1 1-4 0-2 2-1t3-2q0-2 0-1 0 0-1-2t1-2 2-2q1-2 3-2 1-1 2-4 0-3 5-6 4-2 8-2 5 0 8 3 2 2 2 5-1 2-4 4-2 2-4 5 0 3-1 5 0 2-1 2t-1 1 4 0 2 1q-1 2-2 2z" fill="#5c3a31" stroke="#5c3a31"/>
  <path d="m317 650h1q2 1 2 2t-1 1l1 3q2 2 4 3 1 1 2 0 0-1 1 0h1v2h1v1h1v2h-1v1h-1v1h-2v1l1 1v1h-2l-2-1h-1v-1l-1-1q-1-2-1-3t-2-1q-1 0-2-3l-1-3h-3v1h-1v1h1v1q0 1 1 2l1 1-1 1h-1v-2l-1-1v-1h-2l-2-1h1l1-1h1v-2h2q1-1 2-2 0-2 2-2l1-1zm-1 3t1 0q0 1-1 1 0 0 0-1z" fill="#877067" stroke="#877067"/>
  <path d="m544 250h3v2l1 3v2l1 1 1 2v2l1 2 1 1v1q1 0 6 1 6 0 6-2t6-1q5 0 8 0 2-2 2 0 1 1 8 1t7 1 3 1q4 0 4-1 0-2 3-1t7 8 9 6q5 0 5 1 0 2 7 2 7 1 7 4 0 2 1 2t1 6q0 5 0 12 0 6-1 8-2 2-3 2h-1v-1q1-1 2-2t2-2q1-2-5 0-6 1-13 4t-8 4-15 10l-14 9v6h-2v-5l-1-2q-1-2-7-15l-6-13h-1v-1h-1v-2h-1v-1h-1v-1 12h-3l-1-2q0-2-4-3t-10 1q-5 2-9 4-3 3-3 12 0 8 1 12 1 5 5 12 4 8 6 10 2 3 4 9t4 7q2 2 4 2h1v1h-2l-2 1h2v1h1v2h-2l-2-1h-2q-2 0-8-2t-9-4q-3 0-11-6-8-5-14-8-7-2-10-8-4-5-5-6-2 0-3-2t-12-4-15-7l-4-4v-3q-1-2-3-7t-2-17v-18h1v-1h1v7q0 5 1 10 1 4 7 4 6-1 6 0 1 0 4 1 2 0 3 1 0 1 2 2 3 1 4 3 1 1 7 2t6 3 2 2q3 0 4 3t3 7q2 3 4 4 1 0 2 2 0 1 4 2 3 2 4 2 0 0 0 1h1v1l1 1v1h6v-1h1v-2h-1v-1h-1v-1l-1-1q-1-1-1-10 0-8 0-9 2-1 2-7 2-5 0-8l-2-3v-1t-1 0-7-1q-6-1-6 1 0 1-2 1-1-1-2-2 0-1-2-1h-3l-1 1h-2v-2l1-3 1-3v-1l1-1 1-1h4v-1h1v-1h2q2 0 3 2t2 2q2 0 2 2 1 2 3 2h2l1-1 1-1h1v-1h1v-1h2v-1l-1-1v-2l-1-2q0-1 2-2 3 0 3-1v-1h-1v-1h-1q0 1-2 0t-4-2l-1-2h1q1-1 2-2 0-1-1-1h-1v-1q0-1 2-2 3-1 6-2l3-1h1v-2h-1q-1 0-1-2-1-1-2-1h-1v-1l1-1v-1h2q1 0 2 0h1v1h1v-5h-2q-2-1-2-3 0-1 2-2t6-1z" fill="#785448" stroke="#785448"/>
  <path d="m553 696h1v1q0 1 1 1h1t-15 7l-15 7h-2l-1 1h-1v-1h1v-1h1v-1h1l1-1 2-1 3-2q3-4 8-5 5-2 6-3 0-1 3-1 4-1 5-1z" fill="#65605b" stroke="#65605b"/>
  <path d="m519 218h-2q-1-1-3 5-1 5-2 6t2 2 3 2l1 1v1h-1v1h-1t-3 2-5 5q-3 3-11 6t-9 0q0-2-2-3-1 0-3 1-3 1-6 2t-7 4-9 8q-5 6-8 7-2 1-3 3v2h-1v1h-4v-1q-1 0-2-3-1-4-4-4-2 0-2 1-1 1-2 1-2 1-2 0-1-1-2-1-2-1-5 3-4 4-6 2-1-2-4 0-2 0-5 2t-9 1q-5-1-5 0-1 1-6 1-6 0-7 6-2 6-3 6t-1 2q0 1-2 2t-2 2-5 1q-5-1-9 1-3 2-4 3 0 2-2 2-1 0-1 1t-1 1q-2 0-2 1t-4 1q-4 1-7 1-3 2-3 3-1 1-2 1t0 2-4 3q-6 1-6 0t-2-1h-2l1 1q1 0 1 3 0 2-1 3 0 1-1 1-2 0-2 2 1 2 0 2-2 0-2 2v2h-10v1h-1v1h-1v-3l1-2 1-2 3-9q3-8 9-14 6-7 16-15 11-7 25-17t27-15 39-17 44-19 27-6 15 2q5 2 6 3z" fill="#acaba8" stroke="#acaba8"/>
  <path d="m726 481l2 1q2 0 5 1 2 1 5 5 2 3 3 3t6 7q5 8 7 12t2 11-1 7q-1-1-2-2-1 0-1 1t-4 1q-3 1-3 2-1 1-5 1t-4-2-2-2q-1 0-1-2-1-2-4-2-4 0-4-1t-2-1q-2 1-3 2-2 2-5 1-3 0-2 0 1 1 1 2t-6 3q-5 1-6 5-2 3-4 4-2 0-3 2t-5 4q-5 2-6 4 0 1-5 2-5 2-6 3-1 2-6 3-5 0-6 2t-10 4-17 2q-7 0-9-2-2-4-3-1 0 2-1 2-1-1-2-2-1-2-2-2-1-1-3-3-2-3-2-9t2-7q2 0 4-2t5-6l4-4h1v-1h1q1 0 1-1 1 0 2-1l1-1 6-2q7-2 17-7t11-5v-1l9-3q10-4 29-11 19-8 20-11 1-2 1-3zm28 43t0-1 0 1z" fill="#987a6f" stroke="#987a6f"/>
  <path d="m666 509h1v1q-1 0-11 5t-17 7l-6 2-1 1h-1v2h-2v-1l1-1v-1h1v-1h1v-1h1l16-6q16-6 17-7z" fill="#76554b" stroke="#76554b"/>
  <path d="m464 336l-1-3 4 4q4 5 15 7t12 4 3 2q1 1 5 6 3 6 10 8 6 3 14 8 8 6 11 6 3 2 9 4t8 2h2l2 1h2v-2h-1v-1h-2l2-1h2l16 1q16 0 21-2 4-2 4-6t0-4q0-1 1-1v-1h1v2q1 1 2 1t1-1q0-2 2-2 1 0 4-3 2-3 3-6 0-2 1-3v-2h2l1 2q2 2 3 2h1v2-5l-1-2q-1-2-2-4l-1-1v-1h1v-1h1v-1h1v-1h13v8q1 8 0 8-2-1-2-1v1h-1v1h1v4h1l1 1h1v1h1v-3q0-2 4-3t5-1 1-2q1-2 3-5 2-2 3-2 2 0 2-1t0-2v-2h2v-1h1v-1h3v1l3 7q3 6 5 8 3 2 9 2t6 2q0 1 3 0 3 0 4-1 0 0 1-1l1-1v1l1 8 1 7v3l-1 4q-1 5-3 6 0 2-1 2v1h-1v1t0 1h1q0 1 0 1 1 0-1 4-2 3-12 9-10 5-20 9-11 4-20 8-9 5-9 6t-3 2l-3 1h-1l-1 1h-2l-1 1-1 1h-1v1h-1v1h-1q-1 0-6 3l-5 3h-1l-2 1h-1v-1h2v-1h1v-2h-1l-1 1h-1l-1 1-1 1h-2l-1 1q-2 1-16 7-13 6-13 7-1 1-2 1-2 0-9 1t-12-1-8-4q-2-1-4-5t-3-5q-1 0-1-2 0-1-3-4-3-4-5-8t-2-10q2-5 5-13 4-7 9-10l5-3h1l1-1h1v-3h-1l-1-1-1-1h-1l-2-1q-2-1-12-6t-22-10q-11-5-18-12-6-7-10-14l-4-7-1-2q-1-2-1-4z" fill="#664339" stroke="#664339"/>
  <path d="m460 288v-1h-1v-2q-1-2-3 5-2 6-4 10 0 4-3 12t-5 9l-2 1-1 1v1h-2q-2 0-5-4l-2-4h-1v-1h-1v-2h-1v1h-1v3l-1 4q-1 3-3 4-1 0-1 1v2h-3v-1h-1v-1h-1q-1 0-6-4l-6-4v-2h-1l-2-1-2-1h-1v8h1v1h1v1l7 7q7 7 7 7v1h1v1h1v2l1 1 1 1v1h-1v1h-6q-3 0-9 0h-5v1l1 1v1h1v1h1v1h1v1h1v1l6 4q6 5 12 9t6 5 2 1q1 0 5 0h5v1l1 1 1 1v1l-1 1-1 1v1l-1 1-1 1v1h-1q-1 0-9 3l-7 3h-3l-1 1h-1v3h1l1 1h1v1l1 2 10 4q10 4 14 7 2 3 3 5t1 4v2l1 1 1 1v1l-1 1v1h-2q-2-1-3-1t-1 1-3 1h-4v6h1q1 0 3 6t2 7 2 0 4 2q1 3 3 4 3 1 2 6t-1 6-1 2q-1 0-1 1 0 2 1 2t1 2q0 1 3 2t3 2q0 2 1 2t1 3v3h1l-1 1h-1v1l-1 1v1h-1l-1 1-1 1h-1v2l-1-1q0-1-1-1-2 0-3-2l-1-1v-1h-1v-1h-1v1l-1 1-1 1v2l1 1 1 1v1h1v1h1l1 2q1 3 4 3t5 5q1 5 4 4 3 0 5 0 1 1 3 8 0 7-2 8t-2 3q-1 1 0 2 2 0 3 3 1 4-1 5t-3 3-2 2-2 4q-1 5 0 5t0 3q-1 4-2 6v1h-1l-1 1h-14v-1h-1v-2h-1v-1h-1v-3h1v-1h1v-1q0-1 0-3t1-3 3 0l3 1v-1h1v-1h1v-1h1v-2h-5v-3l-1-2v-1h-1v1h-1q-1 0-5 2-3 1-6 2l-3 1v-1q0-2 0-4 0-1-2-4l-2-4v-1h-1v-1h-1v-1h-1v-1h-1v-1h-1v1h-1v5h-1v1h-1v5h3q3 1 4 1 1 1 1 2v1h1v1h1v6h-6q-5 0-12 1t-10-1q-4 0-4-2-1-1-6-1h-5v1q0 1-1 1h-2l1 2q1 3-1 3t-1 4q1 5 0 5v1h1v2h-2q-2 0-12-4l-11-2-1-1h-2v4h1l1 1h-1l-1 1h-1v2l5 1q4 0 6 1l1 1h1v2h1l1 1 1 1h2v2h-3q-3 0-6-2h-2v-1 3h1q1 0 1 2 0 1 1 2l1 1v1h1-6l-2-1q-2-1-6-1l-4-2h-7 1v1h1v1h2l1 1 1 1h2l8 4q9 4 16 6 8 2 30 2t31-3 10-3l1-1 1-1h2v1l1 1v1h1v1h1v1h-1v1h-1v-1l-1 1-1 2v-1h-1v-1h-1q-1 0-3 2-2 0-3 3 0 3-4 4-3 1-3 3-1 2-7 6l-8 3v1h-2q-3 0-3 1t1 1h1l3-1 2-1 6-2q5-2 12-7t12-8q4-4 7-6 2-3 5-4 2-1 3-2 0-1 1-1t1-2l1-1v-2h1v-1h2v2q-1 1-1 2v3-1h1l1-1h1l2-3q1-4 3-4 1-1 2 0 0 2 2 0 3-2 3-7 1-5 2-5 1-1 1 0 0 2 1 2t1-2q1-3 4-3 4 0 4 1 0 2 1 2t1-1v-1l1-2v-2h2v2l1 3v1l1 1q0 1-1 1-2 1-2 8-2 7-2 10t0 4v1l-1 1-1 1v1l-1 2v1h1l2-1 1-2 1-1v-1h4t1-2 2-2 3-5q3-5 4-5t4-6q3-5 4-5 2-1 2-2 1-1 2-1t2-2l2-2h5l1 3q0 3 2 3 2 1 4 5 3 5 8 7t6 4 4 2q4 0 5 2 2 1 5 8 2 8 3 10l1 3v3h2v-4l1-2q1-3 1-6l1-2h3l1 1 1 1h1v1h1v1l2 3q1 3 5 7 3 3 5 12 2 8 0 14t-4 7q-3 0-4 4 0 4-2 4t-2 3q0 4-1 4t-1 1v1h-2q-1 0-2 0t0-1q0-1-2-1-1 0-4 3t-8 2l-4-1-1 4q-1 5-1 6v1h-1v1h-1q-2 0-2 0-1 0-1-1-1-1-3-1-3-1-3 0-1 1-5 4-4 4-4 5t-2 1-4-2-2 0q0 1-2 2-2 2-4 6-3 4-4 4-2 0-2 2-1 2-4 1-4-1-6-1-3 0-3 1t-2 0-5 0q-2 0-2 1-1 2-5 2t-8 0-5 1-2 1q-2 0-2 2-1 1-6 1-4 1-6 3t-5 1-4 0-4 0q-4-1-5-2 0-2-3-2-3 1-4-1-1 0-5 0-3 1-3 2-1 1-4 5-4 3-9 3-4 0-7 3-3 2-5 1-3 0-4-2 0-1-2-1l-1 1v1h-1l-1-1h1v-2q0-2 0-2v-1l1-1h1v-4l-1-2q-1-2-3-12-2-11-6-20l-6-10v-2h-1v-1h-1v-1h-1v1h-1v2h2v3h1v1h-1l6 13q6 14 6 19 2 5 2 7v4l1 1v1h-1v2h-1l-3 1h-3v-2h-1l-2-1t-2-4q-2-3-1-4 0-2-3-3-2-1-2-5-1-4-3-5t-5-4l-4-3v-1l-1-1-1-1v-1h-5v1h1v1l1 1v1h2v2q0 2-1 2-2-1-2 4 0 4-4 4-3 0-3 1t-3 1q-4-1-8 1-5 3-6 4 0 2-2 1-2 0-7 0t-7 2q-3 0-4 0-2-1-2 2-1 3-2 4-2 0-2 1t-4 1q-3 1-4 2 0 2-4 3-5 1-5 2t-1 1q-2 0-2 1-1 1-11 7-11 5-15 8-5 4-6 6 0 2-2 4-2 1-2 4t-2 4-3 4q-1 2-4 4t-3 3q-1 1-5 3-3 1-4 2-1 2-3 2t-2 2q-1 2-2 3-1 0-4 4-3 5-5 5-1 1-2 2 0 1-3 2-2 2-3 3 0 1-6 5-6 5-6 6t-2 2q-3 1-3 3-1 1-3 4-2 2-5 2-2 0-2 3 1 2-1 4-3 2-6 7-4 5-5 5t-1 2q0 1-1 1t-3 5q-1 4-2 3t-2-1-3 4-6 5-5 4q0 3-3 4-2 1-3 5-1 3-2 3l-1 1-1 1v1h-2v1h-1v1h4l54 1h54v1h-246v-87l1-1h2v-3h1q2-1 2-1 1 0 1 0 1 1 1 2 1 0 1-2 0-1 2-2l2-1h1q0-1 1-1h1v-1h1v-1h1v1h1v1h1l-1 3q0 3 0 3h-1v2h2v-2h2v-2l1-1 1-1v-1t0-1q0-2 0-4 0-1 1-5v-4h1q0-1 0-1 0-1 1-1 0-1 3-7l2-7v-3l-1-1v-3q0-1 2-2h4v-1h1v-1l1-1 1-1v-1l1-1v-1h-1l-1 1h-1q-2 1-2 1v1h-3v-1l1-1 2-1 1-1h1t2-2q3 0 3-1 1-1 2-2 2-1 3-5l2-4h1v-1h1v-1l1-1 1-1v7h1v1h1l1-1h1v2l-5 3q-5 2-5 4-1 2-2 2-2 1-1 3 0 1 1 2 2 1 0 2t-3 4 0 3 1 1v1q0 2-2 3-1 1-2 1h-1v1h-1l1 5q0 5 1 5h1l1 2q0 2 0 3-2 1-2 2v1l1 2 1 2v1h1v-1h1v1h1q1 0 1-2l1-3h2l1 4q0 5 0 5 1 0 2-1h1v1h1v1h1v1h1l6 2q6 1 6 1l1 1q1 0 1 2 1 2 6 4 6 2 6 1l6 3q7 4 10 5 4 1 4 3 0 1 0 2v2h2v-1q0-1 1-1 0 0 5-2 5-1 5-2 1-1 5-2 4-2 3-3-1-2 2-1 3 0 3 2 0 1 1 1l1-1 1-2q0-2 1-2 2-1 1-2t-1-4q0-2 2-2t4-1q1-2 4-3 3-2 4-4 0-3 2-3 1 0 1-1t6-2q6-2 7-5 0-4-1-7l-1-4h2q3 0 8 0 4-1 4-4 1-3 4-4 4 0 6-2 1-2 2-5t3-3 4-3q1-2 4-4l3-3 1-1v-1h-5l-1-1-1-1h6q5 0 7-4 3-4 3-3 1 1 4-1 4-1 4-2t6-4q7-2 8-4 0-1 2-1 1-1 3-3t7-3q4-1 4-3 0-1 2-1 1 1 2-2 0-2 3-2t3-2q1-2 2-2 1-1 2-3 0-2 4-2t4 1 2 1q1 0 2-2 1-3 2-3t1-1l-1-2v-2h1v1h1v1l1 1 1 1v3l1 1 1 1v3h1-3q-1 0-2 1 0 1-1 1t-3 0q-1 0 0 1 0 1-2 3t-3 0q-1-1-2 4 0 4-1 4-2 0-2 1t-2 1q-2 1-2 2 0 2-2 2-1 0-4 3t-4 4q-1 0-1 1 0 2-3 2-2 1-2 2t-3 2q-3 2-3 3t-4 3q-4 1-8 6-3 5-4 5-2 0-2 3 0 2-2 4-2 1-3 2 0 2-1 2t-1-2q0-1-1-1t-2 4q-1 3-2 4-2 1-3 2-1 2 0 3 0 1-2 1t-2 1q0 2-1 2t-2 2q-2 2-2 4v10h10q1 0 8-7 7-6 7-7 1-1 3-2 2-2 6-6 4-3 4-4t2-2q2 0 3-3 1-2 4-5t5-4q2 0 3-2 1-3 3-4t2-2 2-2q2 0 2-2 1-1 4-2 2 0 4-3 1-3 2-3t4-3q2-3 2-4 1-2 4-2 4-1 6-1 1-2 6-7 4-5 6-5 1 0 1-1 1-1 2-1 1-1 3-8 2-6 0-9 0-3 0-3 0 1 0-1v-7h4q1 0 1 0h1q0 1 1 2l1 1v2h1l1-1-1-1q-1-1-1-2v-1l-1-1v-1h4l1 3q1 3 2 3 2 0 2 1t1 3l1 1v1h1l2 1h2v-1l-1-1v-1h2v-1h1v-1h1v-2h-1v-1h-1v-2h-1q-1-1-1 0-1 1-5-2l-4-3h-2v-2h1t1 0v1h3v-1h-1l-1-1v-1t-1 0v-1q-1-1-3-4l-2-3h-1v-1h-1v-2h1q1 1 1 1 1 0 2-3 2-2 0-3t-2-2 2-1q3 1 3-2 0-2 1-2 2-1 1-5l-1-4v-1h-1v-1h-3l2-1 2-1h1l1 1 1 1h1l1 1q1 0 2 2 1 3 3 3 1 0 3 2t3 3 3 1h2v1h1v1h8-1l-1-1h-1v-1l-1-1v-1h-2q-2 0-6-5t-5-9q-2-3-3-3-2-1-7-4l-5-3q0-1-1-1v-1q-1 0-1 0v-7h-1v-1h1l-2-1-1-1h-1 4q1 0 2 0h1l1 1h3v-1l-1-1v-1h-1v-1h-1v-1h-1v-1h1v-1h-1l-1-1q-1 0-1-2-1-2-3-4l-3-1v-1h-1v-1h-1 6v-3h-1l-1-1h-1v-2h-1 4v1h1v1l2 3q1 3 2 3 2 0 3 1l1 1h1v1h1v1h2l2-1h1v-3h-2l-1-1-1-1h-1l-1-1q-1-1-7-6-5-5-9-10-3-5-6-7l-2-2v-1h-1v-2l-1-1-1-1v-1h-1v-1h-1v-2h1v1h1v1h1v1h1v1l1 1 1 1v1l3 1q3 2 4 2v1h1l1 1 1 1h6v-1l-1-1-1-1v-1l-1-1-1-1v-1h-1q0-1-7-11l-6-10h-1v-1h-1v-1l-1-1-1-1v-1h-1v-1h3v1h1v1h2v1h1l1 1q1 2 2 3l1 1h7v-1h1v-2l-1-1q-1-1-2-3l-1-3v-4h2l1 1 1 1h1v1h1v1l6 4q6 4 6 4h1l1 1 2 1h4v-3h1v-1h-1l-1-1h-1v-3h-1q-1 0-2-1-1 0-1-1 0-2-2-3-3-1-4-3t-3-2h-2v-1h-1v-5h2q2 0 4-1h1v-1l-1-1v-1q0-1-3-6-2-4-5-6l-2-1h-1v-1h-2v-1h-1v-1h-1v-1h-1v-2h1l1-1h2l1 1 1 1h2l3 1q3 1 3-1 0-3 3-2 3 2 3 2l1 1 1 1h4v-1h1v-1h1v-2h-1v-1h-1v-1h-2v-1h-1v-1h-1q-1 0-3-3l-1-3h-1v-1h-1v-1h-1v-2h9q3 0 3 1t1 1h2l2 1 2 1h2v-1h1v-1h-1v-1h-1v-1h-3v-2h-2q-1 0-3-1t-3-3v-3h-1v-2h-2v-1l1-2h6q2 0 4 0 1 0 2-2 0-2 4-2h5v-1l-1-1v-1h1v-1h-3q-2 0-2-2 0-3-1-4-1-2 0-3t1-4 1-3h2v-1h1v-1h-10v-1h1v-1h1l4-2q3-1 4-4 1-4 4-4 4 0 6-2 1 0 2 0h5v-2h-3q-1 0-2 0t-1-3v-3h-2v-1h-1v-1l4 1q4 1 5 1 1 1 1 2v1h1v-1h2v-1h1v-3q0-2-1-2 0 0 0-2v-1h1v1h8q8 2 8 2 1 0 2 1l1 1h9v-2h-1l-1-1-1-1h-1t-3-3l-3-2v-4l1-1 1-1v-1h2q1 0 6-1l6-1h3v-1h1v-2h-1l-1 1h-2l-2-1q-3-1-16 0t-28-1l-16-2v-4h-1v-1h-1v-3h3l3 2q3 2 6 1 2 0 3 0v-1h2l1-1 2-1 1-1q0-1-2-2l-3-1v-2h6q3 0 4 1l2 1h5v-1l-1-1v-4h-1l-1-1-1-1h-1q-2 0-4-1h-2v-3h-1v-1h-1v-1h-2v-1h-1v-1h4l1 1 2 1 7 2q7 2 10 3l3 1h3l1-1 1-1h-1l-2-1-2-1-1-1v-1h2l1 1 2 1 1 1q1 1 3 1h7-1v-2h-1v-1h-1v-1h-1v-1h-1v-1h-1q-1 0-3-2t-2-3q-1-2-2-2h-1v-2l-1-2v-5h6q5 0 8-1l3-1h-1v-5l-1-1q-1-1-1-1 0-1-4-7t-5-12l-1-5h1l1-1h4v-3h1v-1h1l2-1h1l1 1q0 2 1 2t2 3 3 3q3 0 4 2 0 2 2 0 2-1 3-2 1-2 3-2 3 0 3-2t1-2 1-1q1-1 1-2v-1h1v-1h1v1h1l1 3q0 2 1 3l1 1v1l2-1q3 0 3-2t2 0q3 2 3 3t1 1l1-1h1l2-3q3-2 5-7 2-6 7-12 5-7 6-7t-1 9q-2 8-2 8zm-67 85v-1q1 0 0-1l-1-1h1l-1-1-1-1h-1v-1h-1v-1h-1v-2h1l3-1q3 0 4-1 0 0 2 0t4 1q1 1 2 0 0-1 0-2-1-1 1 0 1 0 3 2 2 3 4 3t2 6q0 5-10 5-9 0-10-2 0-2-1-2zm-33 29q0-1 1-1t1 1-1 1-1-1zm10 4q0-1 1-1t1 1-1 1-1-1zm24 220l-1 1-1 1h-2q-2 0-6-2-5-4-17-10t-13-6q0-1-2-1-1-1-2-2l-2-1v-1l-3-3q-3-4 7 0 11 4 16 3 6-1 12-1 7 0 8 2 0 3 4 4 4 0 4 3t1 3 1 3q1 3-2 5-2 2-2 2z" fill="#775348" stroke="#775348"/>
  <path d="m68 672h-1q-1 0-1 0v1h-1q-1 0-1 3-1 2-2 2 0 0-1 1t-4 2-3 3q-1 2-4 4-2 3-4 5-1 1-4 1-2-1-3 0-1 2-1 3v1h-1v1h-1v1h-2v-2h1v-1q1 0 1-1v-2l-2 1-1 1h1-3v-1h-1v-1q0-2 1-2 1-1 1-4v-5h-1v1l-3 1q-4 1-4-1 0-1-3 0-3 2-3 1t-1-1-3 1l-2 1h-1v1h-1v1h-2v-2h1v-1h1v-1h1l1-1 1-1h1q1 0 12-6 10-6 19-10 8-4 14-9 7-4 15-9l8-4h2q1-1 1 0t-1 1-2 3q-1 2-2 6-2 3-2 5-1 3-3 4-1 1-2 3t0 4q0 1-1 0-2 0-2 1t-2 1z" fill="#84746a" stroke="#84746a"/>
  <path d="m730 451v1h3v1l1 1-1 6q-1 6-4 12t-3 6v3q0 1-1 3-1 3-20 11-19 7-29 11l-9 3h-1q-1 1-17 7l-16 6h-1q-1 0-1 1h-1l-1 1h-3v1h-1v1h-1q-1 0-6 4l-4 2v1h-1v1h-1v1h-1v1h-1v1h-1v1h-1v-3h1v-1h1v-1h1q0-1 1-1h1v-1q1 0 1 0v-1h1l1-1h1v-1l-1-1v-1h-1l-1 1-1 1h-1l-1 1-1 1h-1l-1 1q-1 1-8 5t-10 5q-2 1-7-1t-11-7-12-14q-6-10-9-19t-1-16q0-6 6-10 4-5 22-15l17-11h2l1-1h2l2-1h1l5-3q5-3 6-3h1v-1h1v-1h1l1-1 1-1h2l1-1h1v1h-1v1h-1v1h-1v1h-1v1h-2v1h-1v1h-1q-1 0-13 9-13 9-14 10-2 2-4 2-1 1-4 4t-4 3-2 3q-2 3-3 3l-1 1v7l1 2v1h3q4 1 8 1 5 2 6 2t4 2q3 1 4-1 0-1 2-1t4-1q3-1 10-2t11-1 5 0q2 0 2 2 0 1 7 1 7 1 11-2t2-6q0-3 4-4t4-1 1-2l1-1v-2h1l1-1h-1t-3 0h-2v-2h1q1 0 3-5 3-5 4-6 1 0 2-3 2-2 2-4 1-1 6-4 4-4 5-6t3-3q2 0 4-3 2-2 11-1 8 1 11 3 4 1 7 6 3 6 7 7t6 1 2 1z" fill="#704f44" stroke="#704f44"/>
  <path d="m394 626l-1 1-1 1h-2q-2 0-6-2-5-4-17-10t-13-6q0-1-2-1-1-1-2-2l-2-1v-1l-3-3q-3-4 7 0 11 4 16 3 6-1 12-1 7 0 8 2 0 3 4 4 4 0 4 3t1 3 1 3q1 3-2 5-2 2-2 2z" fill="#684034" stroke="#684034"/>
  <path d="m44 740l-1-2h1q1 0 1 2t1 2q2 1 1 4-1 4-1 5-2 1-2 2v1h-1l1 2q2 0 2 1h1q0 1-1 1-2 0-4-2l-1-1h-1q-1 0-1-5l-1-5h1v-1h1q1 0 2-1 2-1 2-3z" fill="#856c62" stroke="#856c62"/>
  <path d="m705 401v-1l5 4q6 3 8 5t2 3h-2l-2-1q-1-1-1 2-1 3-2 5-2 2-7 2t-11-1l-7-1-1-1h-1v-4h-1v1h-2v-2h2v-1h1v-1h1l5-1q4 0 4-2 0-1 6-3 6-1 5-2-2 0-2-1z" fill="#aaa5a2" stroke="#aaa5a2"/>
  <path d="m585 227h-1q-1 1-5 1-4 1-5 4 0 3-2 3-1 1-4 4-2 3-12 7l-9 3v-1q-1 0-1-2v-3h1v-1h1q2-2 3-2h1l2-1 1-1h-5l-1 1q-1 1-3 1t-4-2l-2-3h-1v-1h-1v-1h-1v-1h-1v-1h-1v-1h-1v-2h2v1h1v1h1l8-2q9-2 18-3t15 1q6 0 6 1z" fill="#aa9d97" stroke="#aa9d97"/>
  <path d="m283 551l2 1v1h1v1l1 1 1 1 1 1h1l4 6q3 5 4 6 1 0 5 6 4 5 7 8 4 3 4 3v1h1v1h2v1h1v1h1v1h-1l-1-1h-1q-1 0-2 0h-4 1l1 1 2 1h-1v1h1v6h1v1h1v2h-2v-1l-1-1v-1h-1l-1-1h-1v-1h-1v-1h-1t-2-2 0-3q1-1-5-11t-7-10-3-3q-1-3-3-6l-2-3v-1h-1v-1h-1v-1l-1-1q-1-2-1-4-1-1 1 1z" fill="#7c5c52" stroke="#7c5c52"/>
  <path d="m256 604v1l1 1 1 2v3h-1v1h-1l-2-1-3-1h-1v-4l-2-2q-2-2-4-16-4-13-3-17 0-4 2-3 1 2 5 12 4 11 6 17t2 7z" fill="#8c6f5f" stroke="#8c6f5f"/>
  <path d="m381 648h1v1h1v1h1v2l6 10q4 9 6 20 2 10 3 12l1 2v4h-1l-1 1-1-1v-1l-1-1v-4q0-2-2-7 0-5-6-19l-6-13h1v-1h-1v-3h-2v-2h1v-1z" fill="#644036" stroke="#644036"/>
  <path d="m459 285v3h-1v18q0 12 2 17t3 7v2q-1 0-1-2 0-1-3-2t-3 4q1 6-1 8l-2 2h-1v1h-1v1h-1q-2 0-4-1-1-1-2-2-1-2-2-2l-1-1h-2v1h-1v1q0 2 1 3t-2 1-6-1-5-3q-1-2-3-3l-2-1v-1h-1v-1h-1v-1h-1v-1h-2l-2-1h-1v1l1 1v1h1v1h1v1h1v1h1v1l8 8q8 7 9 7v1h2v2l1 3v1h-1q-1 0-5 1l-5 1v2h2v1h1v1h4v1l8 1q7 2 13 6 5 4 9 12 3 9 2 9t0 2q1 3 2 3t2 2q0 3 1 4 1 0 1 10 0 11 2 17t7 25q5 18 6 18t2 4 3 5q2 2 4 6t2 6q2 2 2 4t0 7 0 9v4h1v1h3l2-3q3-3 10-1t8 4 3 3q1 0 3 0 0 0 2-2 2-1 4-1h2l4 7q4 7 9 9 5 3 6 4 1 0 1 2 1 2 2 2t4 8q4 7 4 8v2l1 1 1 1v3h2l1-1h1v-2q0-2 0-6v-6h3v1h1v1h1v1h1v2q1 3 5 5t8 4q3 3 6 6 2 4 3 4 2 0 4 3 3 3 3 3h1l2 1 1 1h2l1 1 1 1h1v-4h-1v-1h-1v-2h-1v-1q-1 0-2-3t-3-7l-2-5 1 1q1 2 2 2t4 6q3 5 4 7 2 1 5 2 4 1 11-1t15-3q9-1 9-2t11 0 12 1 6 0q6 0 8 0h3l2-1h2v1l-1 1v1l1 1v1h-2v1l-1 1-2 1q-2 1-3 1t-3 2q-2 3-5 4-2 0-8 2t-7 4q-2 1-3 1l-2 1v-1h-1v-3h-1v-1h-1v1l-1 3v3l6-1q6-1 9-1 2-2 4-2h1l1-1 1-1h3v3l-1 2v2h-1l-1 1-2 2q-2 2-3 3-2 0-3 3-1 4-2 5t-1 3v2h-1l-1 1q0 1 0 1-1 0-1 1h-1q0 1 0 1h-1q-1 0-5 2l-4 2h-2q-2 0-7 2t-10 4-5 4q-1 1-3 1-2 1-5 4t-10 5q-6 2-6 3t-4 2q-3 1-4 2 0 2-5 4-4 2-4 4t-2 2q-2-1-5 3-2 4-5 4-2 1-3 3-1 1-3 1-1-1-1 0 0 2-3 2-2 1-2 2 0 2-2 2t-2 1q-1 1-5 3l-4 3v1h-1v1h-1v1h-1v1h-1v1t-1 0v1h-4q-4 0-4 1-1 1-6 3-5 1-8 5l-3 2-2 1-1 1h-1v1h-1v1h-1v1h-1q-1 1-11 3-11 4-23 8-12 6-27 10-15 6-32 10-17 6-22 10-6 4-8 6t-5 4l-3 1-3 1q-3 1-4 2-1 0-6 4-4 4-7 5-4 1-4 2-1 1-2 2-2 0-2 2-1 1-5 4-3 3-4 4 0 1-1 1-2 0-2 1t-3 2-3 2-1 1q-1 1-2 2 0 1-2 2-1 0-2 1v1h-2v1h-1v1l-1 1q-1 1-1 1v1t-1 1l-31 20q-31 20-42 27-12 7-12 7v1h-54l-54-1h-4v-1h1v-1h2v-1l1-1 1-1q1 0 2-3 1-4 3-5 3-1 3-4 1-3 5-4t6-5 3-4 2 1 2-3q2-5 3-5t1-1q0-2 1-2t5-5q3-5 6-7 2-2 1-4 0-3 2-3 3 0 5-2 2-3 3-4 0-2 3-3 2-1 2-2t6-6q6-4 6-5 1-1 3-3 3-1 3-2 1-1 2-2 2 0 5-5 3-4 4-4 1-1 2-3 0-2 2-2t3-2q1-1 4-2 4-2 5-3 0-1 3-3t4-4q1-3 3-4t2-4 2-4q2-2 2-4 1-2 6-6 4-3 15-8 10-6 11-7 0-1 2-1 1 0 1-1t5-2q4-1 4-3 1-1 4-2 4 0 4-1t2-1q1-1 2-4 0-3 2-2 1 0 4 0 2-2 7-2t7 0q2 1 2-1 1-1 6-4 4-2 8-1 3 0 3-1t3-1q4 0 4-4 0-5 2-4 1 0 1-2v-2h-2v-1l-1-1v-1h-1v-1h5v1l1 1 1 1v1l4 3q3 3 5 4t3 5q0 4 2 5 3 1 3 3-1 1 1 4 2 4 2 4l2 1h1v2h3l3-1h1v-2h1l1 1v1t0 2v2h-1l1 1h1v-1l1-1q2 0 2 1 1 2 4 2 2 1 5-1 3-3 7-3 5 0 9-3 3-4 4-5 0-1 3-2 4 0 5 0 1 2 4 1 3 0 3 2 1 1 5 2 3 1 4 0t4 0 5-1 6-3q5 0 6-1 0-2 2-2 1 0 2-1t5-1 8 0 5-2q0-1 2-1 3-1 5 0t2 0 3-1q2 0 6 1 3 1 4-1 0-2 2-2 1 0 4-4 2-4 4-6 2-1 2-2 0-2 2 0t4 2 2-1 4-5q4-3 5-4 0-1 3 0 2 0 3 1 0 1 1 1 0 0 2 0h1v-1h1v-1q0-1 1-6l1-4 4 1q5 1 8-2t4-3q2 0 2 1-1 1 0 1t2 0h2v-1q0-1 1-1t1-4q0-3 2-3t2-4q1-4 4-4 2-1 4-7t0-14q-2-9-5-12-4-4-5-7l-2-3v-1h-1v-1h-1l-1-1-1-1h-3l-1 2q0 3-1 6l-1 2v4h-2v-3l-1-3q-1-2-3-10-3-7-5-8-1-2-5-2-3 0-4-2t-6-4-8-7q-2-4-4-5-2 0-2-3l-1-3h-5l-2 2q-1 2-2 2t-2 1q0 1-2 2-1 0-4 5-3 6-4 6t-4 5q-2 5-3 5t-2 2-1 2h-4v1l-1 1-1 2-2 1h-1v-1l1-2v-1l1-1 1-1v-1q0-1 0-4t2-10q0-7 2-8 1 0 1-1l-1-1v-1l-1-3v-2h-2v2l-1 2v1q0 1-1 1t-1-2q0-1-4-1-3 0-4 3 0 2-1 2t-1-2q0-1-1 0-1 0-2 5 0 5-3 7-2 2-2 0-1-1-2 0-2 0-3 4l-2 3h-1l-1 1h-1v1-3q0-1 1-2v-2h-2v1h-1v2l-1 1q0 2-1 2t-1 1q-1 1-3 2-3 1-5 4-3 2-7 6-5 3-12 8t-12 7l-6 2-2 1-3 1h-4v-2h7v-1l8-3q6-4 7-6 0-2 3-3 4-1 4-4 1-3 3-3 2-2 3-2h1v1h1v1l1-2 1-1v1h1v-1h1v-1h-1v-1h-1v-1l-1-1v-1h-2l-1 1-1 1q-1 0-10 3t-31 3-30-2q-7-2-16-6l-8-4h-2l-1-1-1-1h-2v-1h-1v-1h-1 7l4 2q4 0 6 1l2 1h6-1v-1l-1-1q-1-1-1-2 0-2-1-2h-1v-3 1h2q3 2 6 2h3v-2h-2l-1-1-1-1h-1v-2h-1l-1-1q-2-1-6-1l-5-1v-2h1l1-1h1l-1-1h-1v-4h2l1 1 11 2q10 4 12 4h2v-2h-1v-1q1 0 0-5-1-4 1-4t1-3l-1-2h2q1 0 1-1v-1h5q5 0 6 1 0 2 4 2 3 2 10 1t12-1h6v-6h-1v-1h-1v-1q0-1-1-2-1 0-4-1h-3v-5h1v-1h1v-5h1v-1h1v1h1v1h1v1h1v1h1v1l2 4q2 3 2 4 0 2 0 4v1l3-1q3-1 6-2 4-2 5-2h1v-1h1v1l1 2v3h5v2h-1v1h-1v1h-1v1l-3-1q-2-1-3 0t-1 3 0 3v1h-1v1h-1v3h1v1h1v2h1v1h14l1-1h1v-1q1-2 2-6 1-3 0-3t0-5q1-4 2-4t2-2 3-3 1-5q-1-3-3-3-1-1 0-2 0-2 2-3t2-8q-2-7-3-8-2 0-5 0-3 1-4-4-2-5-5-5t-4-3l-1-2h-1v-1h-1v-1l-1-1-1-1v-2l1-1 1-1v-1h1v1h1v1l1 1q1 2 3 2 1 0 1 1l1 1v-2h1l1-1 1-1h1v-1l1-1v-1h1l1-1h-1v-3q0-3-1-3t-1-2q0-1-3-2t-3-2q0-2-1-2t-1-2q0-1 1-1 1-1 1-2t1-6-2-6q-2-1-3-4-2-3-4-2t-2 0-2-7-3-6h-1v-6h4q3 0 3-1t1-1 3 1h2v-1l1-1v-1l-1-1-1-1v-2q0-2-1-4t-3-5q-4-3-14-7l-10-4-1-2v-1h-1l-1-1h-1v-3h1l1-1h3l7-3q8-3 9-3h1v-1l1-1 1-1v-1l1-1 1-1v-1l-1-1-1-1v-1h-5q-4 0-5 0-2 0-2-1t-6-5-12-9l-6-4v-1h-1v-1h-1v-1h-1v-1h-1v-1l-1-1v-1h5q6 0 9 0h6v-1h1v-1l-1-1-1-1v-2h-1v-1h-1v-1t-7-7l-7-7v-1h-1v-1h-1v-8h1l2 1 2 1h1v2l6 4q5 4 6 4h1v1h1v1h3v-2q0-1 1-1 2-1 3-4l1-4v-3h1v-1h1v2h1v1h1l2 4q3 4 5 4h2v-1l1-1 2-1q2-1 5-9t3-12q2-4 4-10 2-7 3-5z" fill="#5a372e" stroke="#5a372e"/>
  <path d="m66 672h1v2l-1 1v1l2-1q2-1 1 0 0 1 1 2 1 0 2 1 0 0 2 3 2 2 2 3 0 2-1 6v5l-5 1q-4 0-5 2t-1 1q-1-1-3 0-1 1-2 3t-1 1v1q0 2 1 5t2 2q0-1 1-1t0 2 0 3q1 0 1 1t-1 1q-1 1 0 1t1 3 3 2q2-1 2 2 1 3 0 3t-2 6q-2 6-4 5t-3 1-2 7-1 5-1 2v2h-2v1h-8v-1h-1v-1h-1v-1h1v-1q0-1 2-2 0-1 1-5 1-3-1-4-1 0-2-2v-2t-1 0 0-3 3-4 0-2q-1-1-1-2-1-2 1-3 1 0 2-2 0-2 5-4l5-3v-2h-1l-1 1h-1v-1h-1v-7l-1 1-1 1v1h-1v1h-1l-2 4q-1 4-3 5-1 1-2 2 0 1-3 1-2 2-2 2h-1l-1 1-2 1-1 1v1h3v-1t2-1h1l1-1h1v1l-1 1v1l-1 1-1 1v1h-1v1h-5q-4 0-5-1t-3-1h-4l-2 1h-3v3h9q6 0 6 1t1 1v1l1 1v3l-2 7q-3 6-3 7-1 0-1 1 0 0-1 0v1l-2 2q-2 3-2 3h-1v1h-1v1h-1l-1 2q-1 2-2 1-1 0-2 2v2l-2 1q-2 1-2 2 0 2-1 2 0-1-1-2 0 0-1 0 0 0-2 1h-1v3h-2l-1 1v-90h1l1-1h1l2-1q2 0 2-1l1-1v-1h2v1q0 1-1 1t-1 1v1h2v-1h1v-1h1l2-1q2-1 3-1t1 1 3-1q3-1 3 0 0 2 4 1l3-1v-1h1v5q0 3-1 4-1 0-1 2v1h1v1h3-1l1-1 2-1h2q1 0 4 0t4-1q2-2 4-5 3-2 4-4 0-2 3-3t4-2 1-1q1 0 2-2 0-3 2-4zm3 7q1 0 1 0 0 1 0 1-1 0-1-1zm-31 18v1h-1v1h-1v1h-2v-2h1l1-1q2-1 2 0z" fill="#8f7f77" stroke="#8f7f77"/>
  <path d="m690 395v-1l7 3q7 3 7 3h1t1 1q0 1 1 1 1 1-5 2-6 2-6 3 0 2-4 2l-5 1h-1v7h1l1 1 7 1q6 1 11 1t7-2q1-2 2-5 0-3 1-2l2 1h2l1 1q0 1 1 1t5 6q3 7 5 10t2 8 0 8v8l-1-1v-1h-3v-1q0-1-2-1t-6-1-7-7q-3-5-7-6-3-2-11-3-9-1-11 1-2 3-4 3-2 1-3 3t-5 6q-5 3-6 4 0 2-2 4-1 3-2 3-1 1-4 6-2 5-3 5h-1v2h2q3 0 3 0h1l-1 1h-1v2l-1 1q-1 2-1 2t-4 1-4 4q2 3-2 6t-11 2q-7 0-7-1 0-2-2-2-1 0-5 0t-11 1-10 2q-2 1-4 1t-2 1q-1 2-4 1-3-2-4-2t-6-2q-4 0-8-1h-3v-1l-1-2v-7l1-1q1 0 3-3 1-3 2-3t4-3 4-4q2 0 4-2 1-1 14-10 12-9 13-9h1v-1h1v-1h2v-1h1v-1h1v-1h1v-1h1v-1l3-1q3-1 3-2t9-6q9-4 20-8 10-4 20-9 10-6 12-9 2-4 1-4t-1-1z" fill="#95796e" stroke="#95796e"/>
  <path d="m463 332v1l1 3q0 2 1 4l1 2 4 7q4 7 10 14 7 7 18 12 12 5 22 10t12 6l2 1h1l1 1 1 1h1v3h-1l-1 1h-1l-5 3q-5 3-9 10-3 8-5 13 0 6 2 10t5 8q3 3 3 4 0 2 1 2 1 1 3 5t4 5q3 2 8 4t12 1 9-1q1 0 2-1 0-1 13-7 14-6 16-7l1-1h2l1-1 1-1h1l1-1h1v2h-1v1h-2v1h-1l-1 1h-2l-17 11q-18 10-22 15-6 4-6 10-2 7 1 16t9 19q6 9 12 14t11 7 7 1q3-1 10-5t8-5l1-1h1l1-1 1-1h1l1-1 1-1h1v4h-1v1h-1l-1 1h-1v1q-1 1-1 1h-1t0 1q-1 1-1 1-1 0-1 1v1l-2 4q-2 4-1 10t1 8q2 3 2 4v1l2 5q2 4 3 7t2 3v1h1v2h1v1h1v4h-1l-1-1-1-1h-2l-1-1-2-1h-1t-3-3q-2-3-4-3-1 0-3-4-3-3-6-6-4-2-8-4t-5-5v-2h-1v-1h-1v-1h-1v-1h-3v6q0 4 0 6v2h-1l-1 1h-2v-3l-1-1-1-1v-2q0-1-4-8-3-8-4-8t-2-2q0-2-1-2-1-1-6-4-5-2-9-9l-4-7h-2q-2 0-4 1-2 2-2 2-2 0-3 0-2-1-3-3t-8-4-10 1l-2 3h-3v-1h-1v-4q0-4 0-9t0-7-2-4q0-2-2-6t-4-6q-2-1-3-5t-2-4-6-18q-5-19-7-25t-2-17q0-10-1-10-1-1-1-4-1-2-2-2t-2-3q-1-2 0-2t-2-9q-4-8-9-12-6-4-13-6l-8-1v-1h-4v-1h-1v-1h-2v-2l5-1q4-1 5-1h1v-1l-1-3v-2h-2v-1q-1 0-9-7l-8-8v-1h-1v-1h-1v-1h-1v-1h-1v-1l-1-1v-1h1l2 1h2v1h1v1h1v1h1v1l2 1q2 1 3 3 2 2 5 3t6 1 2-1-1-3v-1h1v-1h2l1 1q1 0 2 2 1 1 2 2 2 1 4 1h1v-1h1v-1h1l2-2q2-2 1-8 0-5 3-4t3 2q0 2 1 2z" fill="#27110f" stroke="#27110f"/>
  <path d="m21 730h3q2 0 3 1t5 1h3-2q-2 1-2 2v2q-1 0-1-1t-6-1h-9v-3h3l2-1h1z" fill="#82675d" stroke="#82675d"/>
  <path d="m516 217h1q0 1 1 1h3q3 1 3 2t2 2q3 0 3 1t2 3q3 1 3 2 0 0 0 1h1q0 1 1 1v2h1v1h1v1h1v1h1l2 3q2 2 4 2t3-1l1-1h5l-1 1-2 1h-1q-1 0-3 2h-1v1h-1v3q0 2 1 2v2h-3q-4 0-6 1t-2 2q0 2 2 3h2v5h-1v-1h-1q-1 0-2 0h-2v1l-1 1v1h1q1 0 2 1 0 2 1 2h1v2h-1l-3 1q-3 1-6 2-2 1-2 2v1h1q1 0 1 1-1 1-2 2h-1l1 2q2 1 4 2t2 0h1v1h1v1q0 1-3 1-2 1-2 2l1 2v2l1 1v1h-2v1h-1v1h-1l-1 1-1 1h-2q-2 0-3-2 0-2-2-2-1 0-2-2t-3-2h-2v1h-1v1h-4l-1 1-1 1v1l-1 3-1 3v2h2l1-1h3q2 0 2 1 1 1 2 2 2 0 2-1 0-2 6-1 7 1 7 1 1 0 1 0v1l2 3q2 3 0 8 0 6-2 7 0 1 0 9 0 9 1 10l1 1v1h1v1h1v2h-1v1h-6v-1l-1-1v-1h-1q0-1 0-1-1 0-4-2-4-1-4-2-1-2-2-2-2-1-4-4-2-4-3-7t-4-3q-2 0-2-2t-6-3-7-2q-1-2-4-3-2-1-2-2-1-1-3-1-3-1-4-1 0-1-6 0-6 0-7-4-1-5-1-10v-6t2-8q2-9 1-9t-6 7q-5 6-7 12-2 5-5 7l-2 3h-1l-1 1q-1 0-1-1t-3-3q-2-2-2 0t-3 2l-2 1v-1l-1-1q-1-1-1-3l-1-3h-1v-1h-1v1h-1v1q0 1-1 2 0 1-1 1t-1 2-3 2q-2 0-3 2-1 1-3 2-2 2-2 0-1-2-4-2-2 0-3-3t-2-3-1-2l-1-1h-1l-2 1h-1v1h-1v3h-4l-1 1h-1l1 5q1 6 5 12t4 7 1 1l1 1v5h1l-3 1q-3 1-8 1h-6v5l1 2v2h1q1 0 2 2 0 1 2 3t3 2h1v1h1v1h1v1h1v1h1v2h1-7q-2 0-3-1l-1-1h-2q-1 0-2 0l2 1 2 1h1l-1 1-1 1h-3l-3-1q-3-1-10-3l-7-2-2-1-1-1h-4v1h1v1h2v1h1v1h1v3h2q2 1 4 1h1l1 1 1 1h1v4l1 1v1h-5l-2-1q-1-1-4-1h-6v2l3 1q2 1 2 2l-1 1-2 1-1 1h-2v1q-1 0-3 0-3 1-6-1l-3-2h-3v3h1v1h1v4l16 2q15 2 28 1t16 0l2 1h2l1-1h1v2h-1v1h-3l-6 1q-5 1-6 1h-2v1l-1 1-1 1v4l3 2q3 3 3 3h1l1 1 1 1h1v2h-9l-1-1q-1-1-2-1 0 0-8-2h-8v-1h-1v1q0 2 1 6 2 5 1 5t-1-1q-1-2-2-2h-1v1h-1v-1q0-1-1-2-1 0-2 0t-2 0q-1-1-3-1l-2-1v1h1v1h2v3q0 3 1 3t2 0h3v2h-5q-1 0-2 0-2 2-6 2-3 0-4 4-1 3-4 4l-4 2h-1v1h-1v1h10v1h-1v1h-2q-1 0-1 3t-1 4 0 3q1 1 1 4 0 2 2 2h3v1h-1v1l1 1v1h-5q-4 0-4 2-1 2-2 2-2 0-4 0h-6l-1 2v1h2v6h-1l-2-1h-1l-2-1q-2-1-5-2l-4-1v-2h-4v2l1 1 1 1v1l1 1 1 1v2l3 1q3 1 3 2 0 2 1 2 0 0 1 1h1v1h1l1 3q2 3 3 3h1v1h1v1h2v1h1v1h1v2h-1v1h-1v1h-4l-1-1-1-1t-3-2q-3-1-3 2 0 2-3 1l-3-1h-2l-1-1-1-1h-2l-1 1h-1v2h1v1h1v1h1v1h2v1h1l2 1q3 2 5 6 3 5 3 6v1l1 1v1h-1q-2 1-4 1h-2v5h1v1h2q2 0 3 2t4 3q2 1 2 3 0 1 1 1 1 1 2 1h1v3h1l1 1h1v1h-1v3h-4l-2-1-1-1h-1t-6-4l-6-4v-1h-1v-1h-1l-1-1-1-1h-2v4l1 3q1 2 2 3l1 1v2h-1v1h-7l-1-1q-1-1-2-3l-1-1h-1v-1h-2v-1h-1v-1h-3v1h1v1l1 1 1 1v1h1v1h1l6 10q7 10 7 11h1v1l1 1 1 1v1l1 1 1 1v1h-6l-1-1-1-1h-1v-1q-1 0-4-2l-3-1v-1l-1-1-1-1v-1h-1v-1h-1v-1h-1v-1h-1v2h1v1h1v1l1 1 1 1v2h1v1l2 2q3 2 6 7 4 5 7 7 2 3 4 2 2 0 2 2 0 1 1 3 1 1 2 2l1 1h1l1 1 1 1h2v3h-1l-2 1h-2v-1h-1v-1h-1l-1-1q-1-1-3-1-1 0-2-3l-2-3v-1h-1v-1h-4 1v2h1l1 1h1v3h-6 1v1h1v1l3 1q2 2 3 4 0 2 1 2l1 1h1v1h-1v1h1v1h1v1h1v1l1 1v1h-2v-1h-1v-1h-1v-1h-2v-1h-1v-1t-4-3q-3-3-7-8-4-6-5-6-1-1-4-6l-4-6h-1l-1-1-1-1-1-1v-1h-1v-1h-2v2l1 1v1h1v1h1v1l2 3q2 3 3 6 2 3 3 3t7 10 5 11q-2 1 0 3t2 2h1v1h1v1h1l1 1q1 1 2 1 0 0 0 1h1q0 1 1 1l5 3q5 3 7 4 1 0 3 3 1 4 5 9t6 5h2v1l1 1v1h1l1 1h1-8v-1h-1v-1h-2q-2 0-3-1t-3-3-3-2q-2 0-3-3-1-2-2-2l-1-1h-1l-1-1-1-1h-1l-2 1-2 1h3v1h1v1l1 4q1 4-1 5-1 0-1 2 0 3-3 2-2 0-2 1t2 2 1 3 0 3q0 1-1 0-2 0-3-1h-1v2h1v1h1l2 3q2 3 3 4v1l1 1v1h1v1h-2v-1q-1 0-1 0 0-1-1 0l-2 2q-2 2-2 2h-1q0 1-1 2h-5v7q0 2 0 1 0 0 0 3 2 3 0 9-2 7-3 8-1 0-2 1 0 1-1 1-2 0-6 5-5 5-6 7-2 0-6 1-3 0-4 2 0 1-2 4-3 3-4 3t-2 3q-2 3-4 3-3 1-4 2 0 2-2 2-2 1-2 2t-2 2-3 4q-1 2-3 2-2 1-5 4t-4 5q-1 3-3 3-2 1-2 2t-4 4q-4 4-6 6-2 1-3 2 0 1-7 7-7 7-8 7h-10v-10q0-2 2-4 1-2 2-2t1-2q0-1 2-1t2-1q-1-1 0-3 1-1 3-2 1-1 2-4 1-4 2-4t1 1q0 2 1 2t1-2q1-1 3-2 2-2 2-4 0-3 2-3 1 0 4-5 4-5 8-6 4-2 4-3t3-3q3-1 3-2t2-2q3 0 3-2 0-1 1-1 1-1 4-4t4-3q2 0 2-2 0-1 2-2 2 0 2-1t2-1q1 0 1-4 1-5 2-4 1 2 3 0t2-3q-1-1 0-1 2 0 3 0t1-1q1-1 2-1h3-1v-3l-1-1-1-1v-3l-1-1-1-1v-1h-1v-1h-1v2l1 2q0 1-1 1t-2 3q-1 2-2 2-2 0-2-1t-4-1-4 2q-1 2-2 3-1 0-2 2 0 2-3 2t-3 2q-1 3-2 2-2 0-2 1 0 2-4 3-5 1-7 3t-3 3q-2 0-2 1-1 2-8 4-6 3-6 4t-4 2q-3 2-4 1 0-1-3 3-2 4-7 4h-6l1 1 1 1h5v1l-1 1-3 3q-3 2-4 4-2 3-4 3t-3 3-2 5q-2 2-6 2-3 1-4 4 0 3-4 4-5 0-8 0h-2l1 4q1 3 1 7-1 3-7 5-6 1-6 2t-1 1q-2 0-2 3-1 2-4 4-3 1-4 3-2 1-4 1t-2 2q0 3 1 4t-1 2q-1 0-1 2l-1 2-1 1q-1 0-1-1 0-2-3-2-3-1-2 1 1 1-3 3-4 1-5 2 0 1-5 2-5 2-5 2-1 0-1 1v1h-2v-2q0-1 0-2 0-2-4-3-3-1-10-5l-6-3q-1-1-2-4 0-4-2-3-1 0-6 0l-4-1t-6-1l-6-2h-1v-1h-1v-1h-1v-9l15 1q14 0 14 2t0 4v1l1 1 1 1v-1l1-4v-5h3l2 1h4v-1h-1v-1h-6l-7-1q-6-1-16-2l-11-2v-1h2v-2q1-2 1-2t1-5 2-7 3-1 4-5q1-6 2-6t0-3q0-3-2-2-3 1-3-2t-1-3 0-2q0-3-1-4-1 0-2-3t-1-5v-1q0 1 1-1t2-3q2-1 3 0 0 1 1-1t5-2l5-1v-5q1-4 1-6 0-1-2-4-2-2-3-1t-1-2-2-2l-2 1v-1h1v-1q-1 0-1 0v-1l1-1h1q2 0 2-2 0-1 1-1 1 1 2-2t2-4q2-1 3-4 0-2 2-5 2-4 2-7v-3q0-1 3-2t3-2 5-4q4-2 46-30 41-28 45-30 4-3 4-4t8-5q9-5 17-12t13-9q4-2 8-4 3-2 3-4 1-2 3-4t7-4q4-1 4-2 0-2 1-2t2-2q0-2 4-4 5-2 8-4 4-4 5-8 1-5 2-5t3-5q2-6 1-8 0-1 1-1t1-3 1-3 7-25q5-26 9-49t6-43q2-21 3-28l1-6t1-1v-1h11v-2q0-2 2-2 1 0 0-2 0-2 2-2 1 0 1-1 1-1 1-3 0-3-1-3l-1-1h2q2 0 2 1t6 0q5-1 4-3t0-2 2-1q0-1 3-3 3 0 7-1 4 0 4-1t2-1q1 0 1-1t1-1q2 0 2-2 1-1 4-3 4-2 9-1 5 0 5-1t2-2 2-2q0-2 1-2t3-6q1-6 7-6 5 0 6-1 0-1 5 0 6 1 9-1t5-2q3-2 4 0 2 2 6-2 3-4 5-3 1 0 2 1 0 1 2 0 1 0 2-1 0-1 2-1 3 0 4 4 1 3 2 3v1h4v-1h1v-2q1-2 3-3 3-1 8-7 5-5 9-8t7-4 6-2q2-1 3-1 2 1 2 3 1 3 9 0t11-6q2-3 5-5t3-2h1v-1h1v-1l-1-1q0-1-3-2t-2-2 2-6q1-6 2-6zm-261 307q1 0 1 0-1 0-1 0zm26 25q1 0 1 0 0 1 0 1-1 0-1-1zm-25 55v1l1 1 1 2v3h-1v1h-1l-2-1-3-1h-1v-4l-2-2q-2-2-4-16-4-13-3-17 0-4 2-3 1 2 5 12 4 11 6 17t2 7z" fill="#90817a" stroke="#90817a"/>
  <path d="m639 314h-1t0 1q-1 1-1 1h-1q-1 0-2 2-2 0-8 4-6 2-15 10t-14 12l-5 3v2h-1v1h-2l-1-1h-1v-1l-1-2v-3h-1v-2l1-2v-1l14-9q14-9 15-10t8-4 13-4q6-2 4 0-1 3-1 3z" fill="#683d30" stroke="#683d30"/>
  <path d="m584 227h1l7 2q7 1 12 3 6 2 8 4 2 1 10 6t12 12q5 8 6 8t3 7q1 7 2 23 0 16 11 19 10 4 12 5t2 2 4 2q3 2 4 3 0 1 1 2 1 0 8 10t8 21 1 18v6-3l-1-7-1-8v-1l-1 1q-1 1-1 1-1 1-4 1-3 1-3 0 0-2-6-2t-9-2q-2-2-5-8l-3-7v-1h-3v1h-1v1h-2v2q0 1 0 2t-2 1q-1 0-3 2-2 3-3 5 0 2-1 2t-5 1-4 3v3h-1v-1h-1l-1-1h-1v-4h-1v-1h1v-1t2 1q1 0 0-8v-8h-13v1h-1v1h-1v1h-1v1l1 1q1 2 2 4l1 2v5-2h-1q-1 0-3-2l-1-2h-2v2q-1 1-1 3-1 3-3 6-3 3-4 3-2 0-2 2 0 1-1 1t-2-1v-2h-1v1q-1 0-1 1 0 0 0 4t-4 6q-5 2-21 2l-16-1v-1h-1q-2 0-4-2-2-1-4-7t-4-9q-2-2-6-10-4-7-5-12-1-4-1-12 0-9 3-12 4-2 9-4 6-2 10-1t4 3l1 2h3v-12 1h1v1h1v2h1v1h1l6 13q6 13 7 15l1 2v2q0 2 1 2 0 1 1 1v2l1 2v1h1l1 1h2v-1h1v-2l5-3q5-4 14-12t15-10q6-4 8-4 1-2 2-2h1q1 0 1 0v-1t1-1h1q1 0 2-1 0-1 0-7 0-7 0-12 0-6-1-6t-1-2q0-3-7-4-7 0-7-2 0-1-5-1-5 1-9-6t-7-8-3 1q0 1-4 1-3 0-3-1t-7-1-8-1q0-2-2 0-3 0-8 0-6-1-6 1t-6 2q-5-1-6-1v-1l-1-1-1-2v-2l-1-2-1-1v-2l-1-3v-3l9-3q10-4 12-7 3-3 4-4 2 0 2-3 1-3 5-4 4 0 5-1z" fill="#93827b" stroke="#93827b"/>
  <path d="m42 757l-1-2h1q0 1 1 1h1t0 1h2q1 1 1 0h6l11 2q10 1 16 2l7 1h6v1h1v1h-4l-2-1h-3v5l-1 4v1l-1-1-1-1v-1q0-2 0-4t-14-2l-15-1v8h-1q-1 1-2 1 0 0 0-5l-1-4h-2l-1 3q0 2-1 2h-1v-1h-1v1h-1v-1l-1-2-1-2v-1q0-1 2-2 0-1 0-3z" fill="#816359" stroke="#816359"/>
  <path d="m310 453v-1h4v2l4 1q3 1 5 2l2 1h1l2 1h1v-4h1v3q1 2 3 3t3 1h2v2h3v1h1v1h1v1h-1v1h-2l-2-1-2-1h-2q-1 0-1-1t-3-1h-6q-3 0-2 2v1h-1q-1 0-1-2t-3-3l-3-1v-2l-1-1-1-1v-1l-1-1-1-1v-1z" fill="#83695f" stroke="#83695f"/>
  <path d="m25 756h1l-1 4q-1 5-1 6 0 2 0 4 0 1 0 1v1l-1 1-1 1v2h-2v2h-2v-2h1t0-3l1-3h-1v-1h-1v-1h-1v1h-1v1h-1q-1 0-1 1h-1v-2q1-2 2-2 1 1 2-1l1-2h1v-1h1v-1h1t1-3q2-3 3-3z" fill="#816358" stroke="#816358"/>
  <path d="m387 766l3-1-8 7q-8 6-8 7t-7 5q-7 5-10 8-4 4-8 6t-4 3-2 2-3 2l-2 1h-1v1h-1v1h-2v1h-1v1h-2v-2h2v-1l1-1v-1h1v-1h2v-1q1-1 2-1 2-1 2-2 1-1 2-2 1 0 1-1t3-2 3-2 2-1q1 0 1-1 1-1 4-4 4-3 5-4 0-2 2-2 1-1 2-2 0-1 4-2 3-1 7-5 5-4 6-4 1-1 4-2z" fill="#68615d" stroke="#68615d"/>
  <path d="m393 373v-1q1 0 0-1l-1-1h1l-1-1-1-1h-1v-1h-1v-1h-1v-2h1l3-1q3 0 4-1 0 0 2 0t4 1q1 1 2 0 0-1 0-2-1-1 1 0 1 0 3 2 2 3 4 3t2 6q0 5-10 5-9 0-10-2 0-2-1-2z" fill="#6e4437" stroke="#6e4437"/>
  <path d="m69 778l-1-1 4 1q5 0 6 0 2-1 2 3 1 3 2 4 0 1-6-1-5-2-6-4 0-2-1-2z" fill="#866e64" stroke="#866e64"/>
  <path d="m0 344v-344h1154v866h-908v-2t12-7q11-7 42-27l31-20h1t0-1h1l1-1h2v-1h1v-1h1l2-1q1-1 3-2t2-2 4-3 8-6q3-3 10-8 7-4 7-5t8-7l8-7 3-1q3-2 5-4t8-6q5-4 22-10 17-4 32-10 15-4 27-10 12-4 23-8 10-2 11-3h2l1-1h2l15-7q15-7 15-7l1-1 1-1h3v-1h1l20-13q20-13 22-15 1-1 25-17t27-18q4-2 4-2l4-2q4-2 5-2h1t1 0v-1q1 0 1-1h3l1-1 1-1h2l2-3q3-2 7-9t9-12q5-6 8-8t8-4q5 0 7-1l1-1h2l1-1q1-1 1-1 1 0 1 0v-1l2-1q3-2 4-2 0 0 1 0v-1q1 0 1-1h1q1 0 5-4t7-11q3-8 6-21l2-12q1 0 1-7t-2-11-7-12q-5-7-6-7t-3-3q-3-4-5-5-3-1-5-1l-2-1v-3t3-6 4-12l1-6v-8q0-3 0-8t-2-8-5-10q-4-6-5-6t-1-1l-1-1q0-1-4-4-4-4-7-6l-3-1v-1t-1 0h-1t-6-3l-7-2v-1h-1v-1h1v-1q1 0 1-2 2-1 3-6l1-4v-6q0-7-1-18t-8-21-8-10q-1-1-1-2-1-1-4-3-4-1-4-2t-2-2-12-5q-11-3-11-19-1-16-2-23-2-7-3-7t-6-8q-4-7-12-12t-10-6q-2-2-8-4-5-2-12-3l-7-2q0-1-6-1-6-2-15-1t-18 3l-8 2h-2q0-1-1-1v-1q-1 0-1 0 0-1-3-2-2-2-2-3t-3-1q-2-1-2-2t-3-2h-2t-1-1h-1v-1q-1 0-5-1-5-1-14-2t-27 6-44 19-39 17-27 15-25 17q-10 8-16 15-6 6-9 14l-3 9-1 3v2q-1 0-1 1v1l-1 6q-1 7-3 28-2 20-6 43t-9 49q-6 25-7 25t-1 3-1 3-1 1q1 2-1 8-2 5-3 5t-2 5q-1 4-5 8-3 2-6 4-4 1-4 3-1 1-2 3-1 0-2 0t-1 2q0 1-1 2-2 0-2 1t-1 1-1-1-3 1-5 5-5 5-7 4q-5 2-13 9t-17 12q-8 4-8 5t-4 4q-4 2-45 30-42 28-46 30-5 3-5 4t-3 2-3 2l-8 4q-8 5-15 9-6 5-14 9-9 4-19 10-11 6-12 6h-1l-1 1-1 1h-1t-1 0v1h-1q-1 0-1 1t-2 1l-2 1h-1l-1 1h-1v-345z" fill="#fefefe" stroke="#fefefe"/>
 </g>
</svg>
